<svg width="22" height="30" viewBox="0 0 22 30" fill="none" xmlns="http://www.w3.org/2000/svg">
<path fill-rule="evenodd" clip-rule="evenodd" d="M11 18.75C13.49 18.75 15.5 16.74 15.5 14.25V5.25C15.5 2.76 13.49 0.75 11 0.75C8.51 0.75 6.5 2.76 6.5 5.25V14.25C6.5 16.74 8.51 18.75 11 18.75ZM9.5 5.25C9.5 4.425 10.175 3.75 11 3.75C11.825 3.75 12.5 4.425 12.5 5.25V14.25C12.5 15.075 11.825 15.75 11 15.75C10.175 15.75 9.5 15.075 9.5 14.25V5.25ZM11 21.75C15.14 21.75 18.5 18.39 18.5 14.25H21.5C21.5 19.545 17.585 23.895 12.5 24.63V29.25H9.5V24.63C4.415 23.895 0.5 19.545 0.5 14.25H3.5C3.5 18.39 6.86 21.75 11 21.75Z" fill="white"/>
</svg>
