<svg width="28" height="34" viewBox="0 0 28 34" fill="none" xmlns="http://www.w3.org/2000/svg">
<path fill-rule="evenodd" clip-rule="evenodd" d="M24.5 3.5H18.23C17.6 1.76 15.95 0.5 14 0.5C12.05 0.5 10.4 1.76 9.77 3.5H3.5C1.85 3.5 0.5 4.85 0.5 6.5V30.5C0.5 32.15 1.85 33.5 3.5 33.5H24.5C26.15 33.5 27.5 32.15 27.5 30.5V6.5C27.5 4.85 26.15 3.5 24.5 3.5ZM14 3.5C14.825 3.5 15.5 4.175 15.5 5C15.5 5.825 14.825 6.5 14 6.5C13.175 6.5 12.5 5.825 12.5 5C12.5 4.175 13.175 3.5 14 3.5ZM3.5 6.5V30.5H24.5V6.5H21.5V11H6.5V6.5H3.5Z" fill="white"/>
</svg>
