<svg width="131" height="17" viewBox="0 0 131 17" fill="none" xmlns="http://www.w3.org/2000/svg">
<path d="M4.5 0.778C4.74 0.778 4.974 0.795999 5.202 0.831999C5.43 0.855999 5.658 0.903999 5.886 0.975999C6.09 1.024 6.282 1.09 6.462 1.174C6.642 1.258 6.816 1.36 6.984 1.48C7.164 1.6 7.332 1.738 7.488 1.894C7.644 2.05 7.788 2.218 7.92 2.398C8.172 2.734 8.358 3.112 8.478 3.532C8.61 3.94 8.676 4.36 8.676 4.792C8.676 5.248 8.592 5.692 8.424 6.124C8.268 6.544 8.034 6.928 7.722 7.276C7.602 7.432 7.464 7.576 7.308 7.708C7.164 7.84 7.008 7.954 6.84 8.05C6.624 8.17 6.396 8.278 6.156 8.374C5.916 8.458 5.67 8.518 5.418 8.554L3.024 8.536V6.988H5.31C5.634 6.904 5.922 6.754 6.174 6.538C6.438 6.322 6.648 6.064 6.804 5.764C6.876 5.644 6.93 5.518 6.966 5.386C7.014 5.254 7.044 5.116 7.056 4.972C7.068 4.924 7.074 4.882 7.074 4.846C7.074 4.798 7.074 4.75 7.074 4.702C7.074 4.546 7.056 4.396 7.02 4.252C6.996 4.108 6.954 3.964 6.894 3.82C6.846 3.652 6.774 3.502 6.678 3.37C6.594 3.226 6.486 3.094 6.354 2.974C6.234 2.854 6.102 2.752 5.958 2.668C5.826 2.572 5.682 2.5 5.526 2.452C5.37 2.392 5.208 2.356 5.04 2.344C4.884 2.32 4.722 2.314 4.554 2.326C4.398 2.326 4.236 2.344 4.068 2.38C3.912 2.416 3.762 2.476 3.618 2.56C3.306 2.716 3.048 2.932 2.844 3.208C2.64 3.484 2.508 3.796 2.448 4.144V13H0.81V3.604C0.858 3.4 0.93 3.196 1.026 2.992C1.122 2.788 1.236 2.602 1.368 2.434C1.488 2.266 1.62 2.116 1.764 1.984C1.908 1.852 2.058 1.732 2.214 1.624C2.382 1.492 2.556 1.378 2.736 1.282C2.916 1.186 3.102 1.108 3.294 1.048C3.498 0.964 3.696 0.904 3.888 0.868C4.092 0.831999 4.296 0.807999 4.5 0.795999V0.778ZM10.2077 0.885999H11.7197V13H10.2077V0.885999ZM18.0692 4.612C18.1172 4.624 18.1652 4.63 18.2132 4.63C18.2732 4.63 18.3272 4.63 18.3752 4.63C18.6752 4.642 18.9692 4.69 19.2572 4.774C19.5572 4.858 19.8392 4.978 20.1032 5.134C20.2592 5.194 20.4032 5.272 20.5352 5.368C20.6672 5.452 20.7932 5.554 20.9132 5.674C21.2252 5.962 21.4772 6.298 21.6692 6.682C21.8612 7.054 21.9812 7.45 22.0292 7.87V13H20.5532V8.23C20.5412 8.062 20.5052 7.888 20.4452 7.708C20.3972 7.528 20.3252 7.36 20.2292 7.204C20.0492 6.892 19.8092 6.634 19.5092 6.43C19.2092 6.226 18.8792 6.094 18.5192 6.034C18.4352 6.01 18.3392 5.998 18.2312 5.998C18.1352 5.986 18.0392 5.98 17.9432 5.98C17.9072 5.98 17.8652 5.98 17.8172 5.98C17.7812 5.98 17.7452 5.986 17.7092 5.998C17.6732 5.998 17.6312 6.004 17.5832 6.016C17.5472 6.016 17.5112 6.016 17.4752 6.016C17.1032 6.028 16.7552 6.124 16.4312 6.304C16.1072 6.472 15.8432 6.712 15.6392 7.024C15.4832 7.276 15.3632 7.546 15.2792 7.834C15.1952 8.122 15.1532 8.422 15.1532 8.734C15.1532 8.77 15.1532 8.812 15.1532 8.86C15.1532 8.896 15.1532 8.938 15.1532 8.986C15.1532 9.034 15.1532 9.082 15.1532 9.13C15.1652 9.166 15.1772 9.202 15.1892 9.238C15.2012 9.418 15.2312 9.598 15.2792 9.778C15.3272 9.946 15.3932 10.114 15.4772 10.282C15.5612 10.438 15.6572 10.588 15.7652 10.732C15.8732 10.864 15.9872 10.99 16.1072 11.11C16.2392 11.23 16.3832 11.332 16.5392 11.416C16.6952 11.5 16.8572 11.566 17.0252 11.614C17.1572 11.662 17.2952 11.698 17.4392 11.722C17.5832 11.746 17.7272 11.758 17.8712 11.758C17.8952 11.758 17.9132 11.758 17.9252 11.758C17.9492 11.758 17.9672 11.752 17.9792 11.74C18.0032 11.74 18.0212 11.74 18.0332 11.74C18.0572 11.74 18.0752 11.74 18.0872 11.74C18.2552 11.728 18.4112 11.698 18.5552 11.65C18.7112 11.602 18.8612 11.536 19.0052 11.452C19.1612 11.356 19.3052 11.248 19.4372 11.128C19.5812 10.996 19.7012 10.858 19.7972 10.714V12.442C19.5212 12.646 19.2212 12.802 18.8972 12.91C18.5732 13.018 18.2372 13.084 17.8892 13.108C17.8172 13.12 17.7452 13.126 17.6732 13.126C17.6132 13.126 17.5472 13.126 17.4752 13.126C17.3312 13.114 17.1872 13.096 17.0432 13.072C16.9112 13.06 16.7792 13.036 16.6472 13C16.4192 12.952 16.1972 12.874 15.9812 12.766C15.7772 12.658 15.5792 12.532 15.3872 12.388C15.2192 12.256 15.0572 12.118 14.9012 11.974C14.7452 11.818 14.6012 11.656 14.4692 11.488C14.3372 11.308 14.2172 11.122 14.1092 10.93C14.0012 10.726 13.9112 10.522 13.8392 10.318C13.7672 10.078 13.7132 9.838 13.6772 9.598C13.6412 9.346 13.6232 9.094 13.6232 8.842C13.6232 8.614 13.6412 8.392 13.6772 8.176C13.7132 7.948 13.7612 7.726 13.8212 7.51C13.8932 7.282 13.9832 7.066 14.0912 6.862C14.1992 6.646 14.3192 6.442 14.4512 6.25C14.5832 6.082 14.7212 5.926 14.8652 5.782C15.0212 5.638 15.1832 5.506 15.3512 5.386C15.5192 5.254 15.6992 5.14 15.8912 5.044C16.0952 4.948 16.2992 4.876 16.5032 4.828C16.7552 4.756 17.0132 4.702 17.2772 4.666C17.5412 4.63 17.8052 4.618 18.0692 4.63V4.612ZM23.8253 4.666H25.4453V9.886C25.4453 10.09 25.4753 10.288 25.5353 10.48C25.6073 10.672 25.7033 10.852 25.8233 11.02C26.0273 11.248 26.2733 11.422 26.5613 11.542C26.8613 11.662 27.1673 11.716 27.4793 11.704C27.7553 11.716 28.0133 11.668 28.2533 11.56C28.5053 11.452 28.7213 11.296 28.9013 11.092C29.0333 10.924 29.1293 10.744 29.1893 10.552C29.2613 10.348 29.3033 10.144 29.3153 9.94V4.666H30.9173V9.868C30.9173 9.94 30.9113 10.006 30.8993 10.066C30.8993 10.114 30.8993 10.168 30.8993 10.228C30.8873 10.348 30.8693 10.468 30.8453 10.588C30.8213 10.696 30.7853 10.804 30.7373 10.912C30.6773 11.092 30.5993 11.266 30.5033 11.434C30.4193 11.602 30.3173 11.758 30.1973 11.902C30.1013 12.034 29.9933 12.16 29.8733 12.28C29.7533 12.388 29.6273 12.49 29.4953 12.586C29.3033 12.706 29.0993 12.808 28.8833 12.892C28.6793 12.964 28.4693 13.018 28.2533 13.054V16.672H26.6333V13.054C26.3693 13.018 26.1173 12.958 25.8773 12.874C25.6373 12.778 25.4153 12.658 25.2113 12.514C25.0553 12.418 24.9053 12.31 24.7613 12.19C24.6293 12.058 24.5033 11.92 24.3833 11.776C24.2393 11.596 24.1193 11.398 24.0233 11.182C23.9393 10.966 23.8733 10.744 23.8253 10.516V4.666Z" fill="#2B4F95"/>
<path d="M32.0889 0.831999H39.7749V2.452H36.7869V13H35.0949V2.452H32.0889V0.831999ZM44.623 4.504C44.719 4.504 44.815 4.504 44.911 4.504C45.007 4.504 45.103 4.51 45.199 4.522C45.391 4.534 45.583 4.558 45.775 4.594C45.979 4.618 46.171 4.66 46.351 4.72C46.627 4.804 46.897 4.918 47.161 5.062C47.425 5.194 47.671 5.35 47.899 5.53C48.151 5.758 48.373 6.004 48.565 6.268C48.769 6.532 48.943 6.82 49.087 7.132L43.597 10.264L42.895 9.04L46.909 6.718C46.801 6.598 46.681 6.484 46.549 6.376C46.429 6.268 46.285 6.172 46.117 6.088C45.949 6.016 45.769 5.956 45.577 5.908C45.397 5.86 45.211 5.83 45.019 5.818C44.839 5.818 44.659 5.836 44.479 5.872C44.311 5.896 44.143 5.938 43.975 5.998C43.603 6.118 43.279 6.322 43.003 6.61C42.727 6.898 42.529 7.234 42.409 7.618C42.385 7.702 42.361 7.792 42.337 7.888C42.325 7.972 42.313 8.056 42.301 8.14C42.289 8.224 42.283 8.314 42.283 8.41C42.283 8.494 42.283 8.578 42.283 8.662C42.295 8.938 42.337 9.208 42.409 9.472C42.493 9.724 42.607 9.97 42.751 10.21C42.883 10.438 43.045 10.654 43.237 10.858C43.441 11.05 43.657 11.218 43.885 11.362C44.089 11.47 44.299 11.548 44.515 11.596C44.743 11.644 44.971 11.668 45.199 11.668C45.331 11.668 45.457 11.662 45.577 11.65C45.709 11.638 45.835 11.614 45.955 11.578C46.123 11.518 46.285 11.446 46.441 11.362C46.597 11.278 46.747 11.188 46.891 11.092C47.047 10.984 47.185 10.864 47.305 10.732C47.425 10.588 47.527 10.438 47.611 10.282C47.683 10.102 47.737 9.922 47.773 9.742C47.821 9.55 47.851 9.358 47.863 9.166L49.375 9.472C49.351 9.784 49.291 10.078 49.195 10.354C49.099 10.63 48.973 10.894 48.817 11.146C48.661 11.398 48.481 11.632 48.277 11.848C48.073 12.052 47.851 12.238 47.611 12.406C47.359 12.574 47.095 12.712 46.819 12.82C46.555 12.928 46.279 13 45.991 13.036C45.919 13.048 45.847 13.06 45.775 13.072C45.703 13.084 45.631 13.096 45.559 13.108C45.475 13.108 45.397 13.108 45.325 13.108C45.253 13.108 45.181 13.108 45.109 13.108C44.965 13.108 44.821 13.102 44.677 13.09C44.533 13.078 44.389 13.06 44.245 13.036C43.957 13.012 43.675 12.946 43.399 12.838C43.123 12.718 42.865 12.574 42.625 12.406C42.181 12.034 41.809 11.602 41.509 11.11C41.221 10.606 41.011 10.072 40.879 9.508C40.867 9.412 40.861 9.322 40.861 9.238C40.861 9.142 40.861 9.052 40.861 8.968C40.861 8.896 40.861 8.83 40.861 8.77C40.861 8.698 40.867 8.632 40.879 8.572C40.879 8.44 40.885 8.308 40.897 8.176C40.921 8.032 40.945 7.9 40.969 7.78C41.029 7.492 41.113 7.216 41.221 6.952C41.329 6.676 41.461 6.412 41.617 6.16C41.785 5.92 41.977 5.704 42.193 5.512C42.421 5.308 42.667 5.134 42.931 4.99C43.195 4.846 43.465 4.738 43.741 4.666C44.029 4.582 44.323 4.534 44.623 4.522V4.504ZM54.7706 4.612H56.7506V6.106H55.1846H54.6806C54.5006 6.166 54.3266 6.232 54.1586 6.304C53.9906 6.376 53.8286 6.46 53.6726 6.556C53.5166 6.664 53.3726 6.784 53.2406 6.916C53.1206 7.036 53.0126 7.174 52.9166 7.33C52.8326 7.462 52.7546 7.606 52.6826 7.762C52.6226 7.906 52.5746 8.062 52.5386 8.23C52.5266 8.338 52.5146 8.446 52.5026 8.554C52.4906 8.662 52.4846 8.77 52.4846 8.878C52.4846 8.938 52.4846 8.998 52.4846 9.058C52.4846 9.106 52.4906 9.16 52.5026 9.22C52.5266 9.4 52.5686 9.574 52.6286 9.742C52.6886 9.91 52.7606 10.072 52.8446 10.228C52.9286 10.36 53.0186 10.486 53.1146 10.606C53.2106 10.726 53.3186 10.834 53.4386 10.93C53.5706 11.05 53.7086 11.158 53.8526 11.254C54.0086 11.338 54.1646 11.41 54.3206 11.47C54.5966 11.542 54.8726 11.596 55.1486 11.632C55.4246 11.668 55.7006 11.68 55.9766 11.668C56.0966 11.68 56.2166 11.686 56.3366 11.686C56.4686 11.674 56.5946 11.662 56.7146 11.65V13H55.2386L54.3566 12.964C54.0926 12.916 53.8346 12.844 53.5826 12.748C53.3426 12.652 53.1086 12.538 52.8806 12.406C52.7006 12.298 52.5266 12.172 52.3586 12.028C52.2026 11.884 52.0526 11.734 51.9086 11.578C51.7886 11.434 51.6746 11.284 51.5666 11.128C51.4586 10.96 51.3626 10.792 51.2786 10.624C51.2186 10.492 51.1646 10.36 51.1166 10.228C51.0686 10.084 51.0266 9.94 50.9906 9.796C50.9786 9.724 50.9666 9.658 50.9546 9.598C50.9426 9.526 50.9306 9.454 50.9186 9.382C50.9066 9.142 50.9066 8.908 50.9186 8.68C50.9306 8.452 50.9606 8.224 51.0086 7.996C51.0446 7.792 51.0986 7.6 51.1706 7.42C51.2426 7.228 51.3266 7.042 51.4226 6.862C51.5546 6.634 51.7046 6.418 51.8726 6.214C52.0406 6.01 52.2206 5.818 52.4126 5.638C52.5446 5.518 52.6766 5.41 52.8086 5.314C52.9526 5.206 53.1026 5.11 53.2586 5.026C53.4986 4.918 53.7446 4.828 53.9966 4.756C54.2486 4.684 54.5066 4.642 54.7706 4.63V4.612Z" fill="#3CA69B"/>
<path d="M67.5918 0.778C67.6518 0.778 67.7118 0.778 67.7718 0.778C67.8438 0.778 67.9098 0.778 67.9698 0.778C68.1618 0.778 68.3478 0.795999 68.5278 0.831999C68.7078 0.855999 68.8818 0.898 69.0498 0.957999C69.2898 1.03 69.5238 1.12 69.7518 1.228C69.9798 1.336 70.1958 1.474 70.3998 1.642C70.6038 1.798 70.7898 1.984 70.9578 2.2C71.1378 2.404 71.2878 2.626 71.4078 2.866C71.5158 3.094 71.6058 3.328 71.6778 3.568C71.7498 3.796 71.7978 4.03 71.8218 4.27L71.8038 13H70.2378V7.654H65.8638V6.106H70.2378V4.36C70.2138 4.192 70.1718 4.024 70.1118 3.856C70.0638 3.688 69.9978 3.526 69.9138 3.37C69.8298 3.214 69.7338 3.07 69.6258 2.938C69.5178 2.806 69.3978 2.692 69.2658 2.596C69.1098 2.5 68.9418 2.422 68.7618 2.362C68.5938 2.29 68.4198 2.242 68.2398 2.218C68.2038 2.206 68.1618 2.2 68.1138 2.2C68.0778 2.188 68.0358 2.182 67.9878 2.182C67.9398 2.17 67.8918 2.164 67.8438 2.164C67.8078 2.164 67.7718 2.164 67.7358 2.164C67.6998 2.164 67.6578 2.164 67.6098 2.164C67.5738 2.164 67.5378 2.17 67.5018 2.182C67.4658 2.182 67.4238 2.188 67.3758 2.2C67.3398 2.2 67.3038 2.206 67.2678 2.218C67.1118 2.242 66.9498 2.284 66.7818 2.344C66.6258 2.404 66.4818 2.482 66.3498 2.578C66.1938 2.674 66.0498 2.794 65.9178 2.938C65.7978 3.07 65.6898 3.22 65.5938 3.388C65.5098 3.52 65.4378 3.658 65.3778 3.802C65.3298 3.946 65.2878 4.09 65.2518 4.234C65.2398 4.366 65.2218 4.498 65.1978 4.63C65.1858 4.75 65.1738 4.876 65.1618 5.008V13H63.6138V4.81C63.6258 4.75 63.6378 4.684 63.6498 4.612C63.6618 4.54 63.6738 4.468 63.6858 4.396C63.7338 4.18 63.7878 3.964 63.8478 3.748C63.9198 3.532 63.9978 3.322 64.0818 3.118C64.1898 2.89 64.3098 2.674 64.4418 2.47C64.5858 2.266 64.7478 2.074 64.9278 1.894C65.1078 1.726 65.2998 1.57 65.5038 1.426C65.7078 1.282 65.9238 1.168 66.1518 1.084C66.3918 0.987999 66.6318 0.916 66.8718 0.868C67.1118 0.819999 67.3518 0.795999 67.5918 0.795999V0.778ZM77.4879 4.612H79.4679V6.106H77.9019H77.3979C77.2179 6.166 77.0439 6.232 76.8759 6.304C76.7079 6.376 76.5459 6.46 76.3899 6.556C76.2339 6.664 76.0899 6.784 75.9579 6.916C75.8379 7.036 75.7299 7.174 75.6339 7.33C75.5499 7.462 75.4719 7.606 75.3999 7.762C75.3399 7.906 75.2919 8.062 75.2559 8.23C75.2439 8.338 75.2319 8.446 75.2199 8.554C75.2079 8.662 75.2019 8.77 75.2019 8.878C75.2019 8.938 75.2019 8.998 75.2019 9.058C75.2019 9.106 75.2079 9.16 75.2199 9.22C75.2439 9.4 75.2859 9.574 75.3459 9.742C75.4059 9.91 75.4779 10.072 75.5619 10.228C75.6459 10.36 75.7359 10.486 75.8319 10.606C75.9279 10.726 76.0359 10.834 76.1559 10.93C76.2879 11.05 76.4259 11.158 76.5699 11.254C76.7259 11.338 76.8819 11.41 77.0379 11.47C77.3139 11.542 77.5899 11.596 77.8659 11.632C78.1419 11.668 78.4179 11.68 78.6939 11.668C78.8139 11.68 78.9339 11.686 79.0539 11.686C79.1859 11.674 79.3119 11.662 79.4319 11.65V13H77.9559L77.0739 12.964C76.8099 12.916 76.5519 12.844 76.2999 12.748C76.0599 12.652 75.8259 12.538 75.5979 12.406C75.4179 12.298 75.2439 12.172 75.0759 12.028C74.9199 11.884 74.7699 11.734 74.6259 11.578C74.5059 11.434 74.3919 11.284 74.2839 11.128C74.1759 10.96 74.0799 10.792 73.9959 10.624C73.9359 10.492 73.8819 10.36 73.8339 10.228C73.7859 10.084 73.7439 9.94 73.7079 9.796C73.6959 9.724 73.6839 9.658 73.6719 9.598C73.6599 9.526 73.6479 9.454 73.6359 9.382C73.6239 9.142 73.6239 8.908 73.6359 8.68C73.6479 8.452 73.6779 8.224 73.7259 7.996C73.7619 7.792 73.8159 7.6 73.8879 7.42C73.9599 7.228 74.0439 7.042 74.1399 6.862C74.2719 6.634 74.4219 6.418 74.5899 6.214C74.7579 6.01 74.9379 5.818 75.1299 5.638C75.2619 5.518 75.3939 5.41 75.5259 5.314C75.6699 5.206 75.8199 5.11 75.9759 5.026C76.2159 4.918 76.4619 4.828 76.7139 4.756C76.9659 4.684 77.2239 4.642 77.4879 4.63V4.612ZM84.9708 4.612C85.0188 4.624 85.0668 4.63 85.1148 4.63C85.1748 4.63 85.2288 4.63 85.2768 4.63C85.5768 4.642 85.8708 4.69 86.1588 4.774C86.4588 4.858 86.7408 4.978 87.0048 5.134C87.1608 5.194 87.3048 5.272 87.4368 5.368C87.5688 5.452 87.6948 5.554 87.8148 5.674C88.1268 5.962 88.3788 6.298 88.5708 6.682C88.7628 7.054 88.8828 7.45 88.9308 7.87V13H87.4548V8.23C87.4428 8.062 87.4068 7.888 87.3468 7.708C87.2988 7.528 87.2268 7.36 87.1308 7.204C86.9508 6.892 86.7108 6.634 86.4108 6.43C86.1108 6.226 85.7808 6.094 85.4208 6.034C85.3368 6.01 85.2408 5.998 85.1328 5.998C85.0368 5.986 84.9408 5.98 84.8448 5.98C84.8088 5.98 84.7668 5.98 84.7188 5.98C84.6828 5.98 84.6468 5.986 84.6108 5.998C84.5748 5.998 84.5328 6.004 84.4848 6.016C84.4488 6.016 84.4128 6.016 84.3768 6.016C84.0048 6.028 83.6568 6.124 83.3328 6.304C83.0088 6.472 82.7448 6.712 82.5408 7.024C82.3848 7.276 82.2648 7.546 82.1808 7.834C82.0968 8.122 82.0548 8.422 82.0548 8.734C82.0548 8.77 82.0548 8.812 82.0548 8.86C82.0548 8.896 82.0548 8.938 82.0548 8.986C82.0548 9.034 82.0548 9.082 82.0548 9.13C82.0668 9.166 82.0788 9.202 82.0908 9.238C82.1028 9.418 82.1328 9.598 82.1808 9.778C82.2288 9.946 82.2948 10.114 82.3788 10.282C82.4628 10.438 82.5588 10.588 82.6668 10.732C82.7748 10.864 82.8888 10.99 83.0088 11.11C83.1408 11.23 83.2848 11.332 83.4408 11.416C83.5968 11.5 83.7588 11.566 83.9268 11.614C84.0588 11.662 84.1968 11.698 84.3408 11.722C84.4848 11.746 84.6288 11.758 84.7728 11.758C84.7968 11.758 84.8148 11.758 84.8268 11.758C84.8508 11.758 84.8688 11.752 84.8808 11.74C84.9048 11.74 84.9228 11.74 84.9348 11.74C84.9588 11.74 84.9768 11.74 84.9888 11.74C85.1568 11.728 85.3128 11.698 85.4568 11.65C85.6128 11.602 85.7628 11.536 85.9068 11.452C86.0628 11.356 86.2068 11.248 86.3388 11.128C86.4828 10.996 86.6028 10.858 86.6988 10.714V12.442C86.4228 12.646 86.1228 12.802 85.7988 12.91C85.4748 13.018 85.1388 13.084 84.7908 13.108C84.7188 13.12 84.6468 13.126 84.5748 13.126C84.5148 13.126 84.4488 13.126 84.3768 13.126C84.2328 13.114 84.0888 13.096 83.9448 13.072C83.8128 13.06 83.6808 13.036 83.5488 13C83.3208 12.952 83.0988 12.874 82.8828 12.766C82.6788 12.658 82.4808 12.532 82.2888 12.388C82.1208 12.256 81.9588 12.118 81.8028 11.974C81.6468 11.818 81.5028 11.656 81.3708 11.488C81.2388 11.308 81.1188 11.122 81.0108 10.93C80.9028 10.726 80.8128 10.522 80.7408 10.318C80.6688 10.078 80.6148 9.838 80.5788 9.598C80.5428 9.346 80.5248 9.094 80.5248 8.842C80.5248 8.614 80.5428 8.392 80.5788 8.176C80.6148 7.948 80.6628 7.726 80.7228 7.51C80.7948 7.282 80.8848 7.066 80.9928 6.862C81.1008 6.646 81.2208 6.442 81.3528 6.25C81.4848 6.082 81.6228 5.926 81.7668 5.782C81.9228 5.638 82.0848 5.506 82.2528 5.386C82.4208 5.254 82.6008 5.14 82.7928 5.044C82.9968 4.948 83.2008 4.876 83.4048 4.828C83.6568 4.756 83.9148 4.702 84.1788 4.666C84.4428 4.63 84.7068 4.618 84.9708 4.63V4.612ZM97.4049 0.885999H98.9529V9.022C98.9409 9.382 98.8869 9.73 98.7909 10.066C98.6949 10.39 98.5629 10.708 98.3949 11.02C98.2869 11.26 98.1489 11.488 97.9809 11.704C97.8249 11.908 97.6449 12.094 97.4409 12.262C97.2369 12.418 97.0149 12.556 96.7749 12.676C96.5469 12.796 96.3069 12.898 96.0549 12.982C95.9349 12.994 95.8029 13.012 95.6589 13.036C95.5269 13.072 95.3949 13.096 95.2629 13.108C95.2029 13.108 95.1369 13.108 95.0649 13.108C95.0049 13.12 94.9389 13.126 94.8669 13.126C94.8309 13.126 94.7949 13.126 94.7589 13.126C94.7349 13.126 94.7109 13.126 94.6869 13.126C94.6629 13.126 94.6329 13.12 94.5969 13.108C94.5729 13.108 94.5429 13.108 94.5069 13.108C94.2429 13.108 93.9789 13.084 93.7149 13.036C93.4629 12.988 93.2169 12.916 92.9769 12.82C92.7489 12.7 92.5269 12.562 92.3109 12.406C92.1069 12.238 91.9209 12.058 91.7529 11.866C91.5729 11.674 91.4049 11.47 91.2489 11.254C91.1049 11.026 90.9789 10.792 90.8709 10.552C90.7749 10.312 90.6969 10.066 90.6369 9.814C90.5769 9.562 90.5409 9.304 90.5289 9.04C90.5169 8.512 90.5889 7.996 90.7449 7.492C90.9009 6.988 91.1289 6.526 91.4289 6.106C91.7769 5.698 92.1789 5.362 92.6349 5.098C93.0909 4.834 93.5769 4.66 94.0929 4.576C94.5729 4.552 95.0409 4.588 95.4969 4.684C95.9649 4.78 96.4089 4.93 96.8289 5.134V6.628C96.6489 6.508 96.4569 6.4 96.2529 6.304C96.0609 6.208 95.8629 6.124 95.6589 6.052C95.4909 5.992 95.3169 5.956 95.1369 5.944C94.9689 5.92 94.8009 5.914 94.6329 5.926C94.4649 5.926 94.2969 5.95 94.1289 5.998C93.9609 6.034 93.7989 6.088 93.6429 6.16C93.3069 6.28 93.0069 6.472 92.7429 6.736C92.4909 6.988 92.3049 7.288 92.1849 7.636C92.1129 7.804 92.0589 7.978 92.0229 8.158C91.9989 8.338 91.9869 8.518 91.9869 8.698C91.9869 8.878 92.0049 9.058 92.0409 9.238C92.0769 9.406 92.1249 9.574 92.1849 9.742C92.2929 10.066 92.4489 10.372 92.6529 10.66C92.8569 10.936 93.0969 11.176 93.3729 11.38C93.5289 11.464 93.6849 11.536 93.8409 11.596C94.0089 11.644 94.1829 11.68 94.3629 11.704C94.4349 11.716 94.5069 11.728 94.5789 11.74C94.6509 11.74 94.7229 11.74 94.7949 11.74C94.8909 11.74 94.9869 11.734 95.0829 11.722C95.1909 11.71 95.2929 11.698 95.3889 11.686C95.5569 11.638 95.7189 11.578 95.8749 11.506C96.0429 11.434 96.1929 11.338 96.3249 11.218C96.6009 11.026 96.8349 10.792 97.0269 10.516C97.2189 10.228 97.3449 9.916 97.4049 9.58V0.885999ZM104.421 4.504C104.517 4.504 104.613 4.504 104.709 4.504C104.805 4.504 104.901 4.51 104.997 4.522C105.189 4.534 105.381 4.558 105.573 4.594C105.777 4.618 105.969 4.66 106.149 4.72C106.425 4.804 106.695 4.918 106.959 5.062C107.223 5.194 107.469 5.35 107.697 5.53C107.949 5.758 108.171 6.004 108.363 6.268C108.567 6.532 108.741 6.82 108.885 7.132L103.395 10.264L102.693 9.04L106.707 6.718C106.599 6.598 106.479 6.484 106.347 6.376C106.227 6.268 106.083 6.172 105.915 6.088C105.747 6.016 105.567 5.956 105.375 5.908C105.195 5.86 105.009 5.83 104.817 5.818C104.637 5.818 104.457 5.836 104.277 5.872C104.109 5.896 103.941 5.938 103.773 5.998C103.401 6.118 103.077 6.322 102.801 6.61C102.525 6.898 102.327 7.234 102.207 7.618C102.183 7.702 102.159 7.792 102.135 7.888C102.123 7.972 102.111 8.056 102.099 8.14C102.087 8.224 102.081 8.314 102.081 8.41C102.081 8.494 102.081 8.578 102.081 8.662C102.093 8.938 102.135 9.208 102.207 9.472C102.291 9.724 102.405 9.97 102.549 10.21C102.681 10.438 102.843 10.654 103.035 10.858C103.239 11.05 103.455 11.218 103.683 11.362C103.887 11.47 104.097 11.548 104.313 11.596C104.541 11.644 104.769 11.668 104.997 11.668C105.129 11.668 105.255 11.662 105.375 11.65C105.507 11.638 105.633 11.614 105.753 11.578C105.921 11.518 106.083 11.446 106.239 11.362C106.395 11.278 106.545 11.188 106.689 11.092C106.845 10.984 106.983 10.864 107.103 10.732C107.223 10.588 107.325 10.438 107.409 10.282C107.481 10.102 107.535 9.922 107.571 9.742C107.619 9.55 107.649 9.358 107.661 9.166L109.173 9.472C109.149 9.784 109.089 10.078 108.993 10.354C108.897 10.63 108.771 10.894 108.615 11.146C108.459 11.398 108.279 11.632 108.075 11.848C107.871 12.052 107.649 12.238 107.409 12.406C107.157 12.574 106.893 12.712 106.617 12.82C106.353 12.928 106.077 13 105.789 13.036C105.717 13.048 105.645 13.06 105.573 13.072C105.501 13.084 105.429 13.096 105.357 13.108C105.273 13.108 105.195 13.108 105.123 13.108C105.051 13.108 104.979 13.108 104.907 13.108C104.763 13.108 104.619 13.102 104.475 13.09C104.331 13.078 104.187 13.06 104.043 13.036C103.755 13.012 103.473 12.946 103.197 12.838C102.921 12.718 102.663 12.574 102.423 12.406C101.979 12.034 101.607 11.602 101.307 11.11C101.019 10.606 100.809 10.072 100.677 9.508C100.665 9.412 100.659 9.322 100.659 9.238C100.659 9.142 100.659 9.052 100.659 8.968C100.659 8.896 100.659 8.83 100.659 8.77C100.659 8.698 100.665 8.632 100.677 8.572C100.677 8.44 100.683 8.308 100.695 8.176C100.719 8.032 100.743 7.9 100.767 7.78C100.827 7.492 100.911 7.216 101.019 6.952C101.127 6.676 101.259 6.412 101.415 6.16C101.583 5.92 101.775 5.704 101.991 5.512C102.219 5.308 102.465 5.134 102.729 4.99C102.993 4.846 103.263 4.738 103.539 4.666C103.827 4.582 104.121 4.534 104.421 4.522V4.504ZM113.345 4.612C113.441 4.6 113.537 4.594 113.633 4.594C113.741 4.594 113.837 4.594 113.921 4.594C114.017 4.594 114.113 4.6 114.209 4.612C114.305 4.612 114.395 4.618 114.479 4.63C114.851 4.702 115.199 4.828 115.523 5.008C115.847 5.188 116.129 5.416 116.369 5.692C116.633 5.38 116.945 5.134 117.305 4.954C117.665 4.774 118.049 4.666 118.457 4.63C118.673 4.618 118.883 4.624 119.087 4.648C119.303 4.66 119.513 4.696 119.717 4.756C119.885 4.792 120.041 4.846 120.185 4.918C120.329 4.978 120.461 5.056 120.581 5.152C120.713 5.248 120.839 5.356 120.959 5.476C121.079 5.584 121.187 5.704 121.283 5.836C121.403 6.028 121.499 6.226 121.571 6.43C121.655 6.634 121.721 6.85 121.769 7.078V13H120.275V7.708C120.263 7.552 120.239 7.396 120.203 7.24C120.167 7.084 120.119 6.928 120.059 6.772C119.939 6.568 119.777 6.394 119.573 6.25C119.381 6.106 119.165 6.016 118.925 5.98C118.877 5.968 118.829 5.962 118.781 5.962C118.733 5.95 118.679 5.944 118.619 5.944C118.439 5.944 118.259 5.98 118.079 6.052C117.911 6.112 117.755 6.208 117.611 6.34C117.455 6.484 117.329 6.658 117.233 6.862C117.137 7.066 117.089 7.282 117.089 7.51V13H115.559V7.582C115.547 7.33 115.487 7.09 115.379 6.862C115.283 6.622 115.145 6.418 114.965 6.25C114.881 6.178 114.785 6.118 114.677 6.07C114.569 6.022 114.461 5.992 114.353 5.98C114.317 5.98 114.281 5.98 114.245 5.98C114.221 5.968 114.197 5.962 114.173 5.962C114.149 5.95 114.119 5.944 114.083 5.944C114.059 5.944 114.029 5.944 113.993 5.944C113.921 5.944 113.849 5.95 113.777 5.962C113.717 5.962 113.657 5.974 113.597 5.998C113.345 6.058 113.123 6.178 112.931 6.358C112.739 6.538 112.595 6.748 112.499 6.988C112.463 7.108 112.433 7.228 112.409 7.348C112.397 7.456 112.391 7.576 112.391 7.708C112.391 7.72 112.391 7.738 112.391 7.762C112.391 7.786 112.397 7.804 112.409 7.816C112.409 7.84 112.409 7.864 112.409 7.888C112.409 7.9 112.409 7.918 112.409 7.942V13H110.879V7.384C110.879 7.228 110.891 7.078 110.915 6.934C110.951 6.778 110.993 6.622 111.041 6.466C111.173 6.166 111.347 5.896 111.563 5.656C111.779 5.404 112.025 5.188 112.301 5.008C112.469 4.912 112.637 4.834 112.805 4.774C112.985 4.714 113.165 4.666 113.345 4.63V4.612ZM123.78 4.666H125.4V9.886C125.4 10.09 125.43 10.288 125.49 10.48C125.562 10.672 125.658 10.852 125.778 11.02C125.982 11.248 126.228 11.422 126.516 11.542C126.816 11.662 127.122 11.716 127.434 11.704C127.71 11.716 127.968 11.668 128.208 11.56C128.46 11.452 128.676 11.296 128.856 11.092C128.988 10.924 129.084 10.744 129.144 10.552C129.216 10.348 129.258 10.144 129.27 9.94V4.666H130.872V9.868C130.872 9.94 130.866 10.006 130.854 10.066C130.854 10.114 130.854 10.168 130.854 10.228C130.842 10.348 130.824 10.468 130.8 10.588C130.776 10.696 130.74 10.804 130.692 10.912C130.632 11.092 130.554 11.266 130.458 11.434C130.374 11.602 130.272 11.758 130.152 11.902C130.056 12.034 129.948 12.16 129.828 12.28C129.708 12.388 129.582 12.49 129.45 12.586C129.258 12.706 129.054 12.808 128.838 12.892C128.634 12.964 128.424 13.018 128.208 13.054V16.672H126.588V13.054C126.324 13.018 126.072 12.958 125.832 12.874C125.592 12.778 125.37 12.658 125.166 12.514C125.01 12.418 124.86 12.31 124.716 12.19C124.584 12.058 124.458 11.92 124.338 11.776C124.194 11.596 124.074 11.398 123.978 11.182C123.894 10.966 123.828 10.744 123.78 10.516V4.666Z" fill="#FB7800"/>
</svg>
